<?xml version="1.0" encoding="utf-8"?>
<!-- Generator: Adobe Illustrator 16.0.0, SVG Export Plug-In . SVG Version: 6.00 Build 0)  -->
<!DOCTYPE svg PUBLIC "-//W3C//DTD SVG 1.1//EN" "http://www.w3.org/Graphics/SVG/1.1/DTD/svg11.dtd">
<svg version="1.1" id="Layer_1" focusable="false" xmlns="http://www.w3.org/2000/svg" xmlns:xlink="http://www.w3.org/1999/xlink"
	 x="0px" y="0px" width="612px" height="792px" viewBox="0 0 612 792" enable-background="new 0 0 612 792" xml:space="preserve">
<path fill="#FFFFFF" d="M306.41,419.224L120.624,605.009c-12.841,12.841-33.605,12.841-46.31,0l-30.874-30.873
	c-12.841-12.841-12.841-33.605,0-46.31L175.13,396.137L43.441,264.447c-12.841-12.841-12.841-33.605,0-46.31l30.737-31.146
	c12.841-12.841,33.605-12.841,46.31,0l185.786,185.786C319.251,385.618,319.251,406.382,306.41,419.224z M568.695,372.777
	L382.91,186.991c-12.842-12.841-33.605-12.841-46.311,0l-30.873,30.873c-12.841,12.841-12.841,33.605,0,46.31l131.689,131.689
	L305.727,527.553c-12.841,12.841-12.841,33.605,0,46.31l30.873,30.873c12.842,12.842,33.605,12.842,46.311,0L568.695,418.95
	C581.537,406.382,581.537,385.618,568.695,372.777L568.695,372.777z"/>
</svg>
