<?xml version="1.0" encoding="utf-8"?>
<!-- Generator: Adobe Illustrator 16.0.0, SVG Export Plug-In . SVG Version: 6.00 Build 0)  -->
<!DOCTYPE svg PUBLIC "-//W3C//DTD SVG 1.1//EN" "http://www.w3.org/Graphics/SVG/1.1/DTD/svg11.dtd">
<svg version="1.1" id="Layer_1" focusable="false" xmlns="http://www.w3.org/2000/svg" xmlns:xlink="http://www.w3.org/1999/xlink"
	 x="0px" y="0px" width="612px" height="792px" viewBox="0 0 612 792" enable-background="new 0 0 612 792" xml:space="preserve">
<g>
	<path fill="#FFFFFF" d="M174.721,396L306.41,264.311c12.841-12.841,12.841-33.605,0-46.31l-30.874-31.01
		c-12.841-12.841-33.605-12.841-46.31,0L43.441,372.777c-12.978,12.841-12.978,33.605-0.136,46.447L229.09,605.009
		c12.841,12.841,33.605,12.841,46.31,0l30.874-30.873c12.841-12.841,12.841-33.605,0-46.31L174.721,396z"/>
	<path fill="#FFFFFF" d="M568.695,527.689L437.006,396l131.553-131.826c12.842-12.704,12.842-33.469,0-46.31l-30.873-30.873
		c-12.704-12.841-33.469-12.841-46.31,0L305.59,372.777c-12.841,12.841-12.841,33.605,0.136,46.447l185.786,185.785
		c12.704,12.841,33.469,12.841,46.31,0l30.873-31.01C581.537,561.295,581.537,540.53,568.695,527.689z"/>
</g>
</svg>
